<svg width="288" height="76" viewBox="0 0 288 76" fill="none" xmlns="http://www.w3.org/2000/svg">
<g clip-path="url(#clip0)">
<path d="M154.522 33.5139L149.306 58.7967H135.718L140.934 33.5139C141.343 31.5267 141.106 31.1604 139.18 31.1604H134.275C132.362 31.1604 131.961 31.5267 131.557 33.4634C131.557 33.4634 131.557 33.4971 131.557 33.5139L126.34 58.7967H112.74L117.96 33.5139C118.369 31.5267 118.132 31.1604 116.202 31.1604H111.297C109.367 31.1604 108.979 31.5309 108.57 33.5139L103.35 58.7967H89.762L97.7701 19.9862H108.807L110.557 23.3208C111.564 22.2294 112.782 21.3684 114.133 20.7939C115.484 20.2193 116.937 19.9442 118.398 19.9862H121.214C126.528 19.9862 130.114 22.3651 131.397 26.3859C133.772 21.9146 137.214 19.9862 141.372 19.9862H144.192C152.176 19.9862 156.235 25.2954 154.522 33.5139Z" fill="white"/>
<path d="M195.961 33.5139L193.537 45.269C191.84 53.4875 185.586 58.7967 177.594 58.7967H167.301C159.321 58.7967 155.262 53.4833 156.959 45.2648L159.383 33.5139C161.075 25.2954 167.329 19.9862 175.325 19.9862H185.635C193.598 19.9862 197.662 25.2954 195.961 33.5139ZM182.361 33.5139C182.769 31.5266 182.532 31.1603 180.607 31.1603H175.701C173.772 31.1603 173.384 31.5308 172.975 33.5139L170.547 45.2648C170.138 47.2521 170.379 47.6184 172.304 47.6184H177.21C179.135 47.6184 179.528 47.2479 179.937 45.2648L182.361 33.5139Z" fill="white"/>
<path d="M237.384 33.5277L234.96 45.2828C233.263 53.5013 227.009 58.8105 219.017 58.8105H208.723C200.744 58.8105 196.685 53.4971 198.381 45.2786L200.805 33.5277C202.498 25.3092 208.752 20 216.748 20H227.058C235.021 20 239.084 25.3092 237.384 33.5277ZM223.783 33.5277C224.192 31.5404 223.955 31.1741 222.03 31.1741H217.124C215.195 31.1741 214.806 31.5446 214.397 33.5277L211.969 45.2786C211.56 47.2659 211.802 47.6322 213.727 47.6322H218.633C220.558 47.6322 220.95 47.2617 221.359 45.2786L223.783 33.5277Z" fill="white"/>
<path d="M36.7338 5.69226H53.9765L39.6321 75.9999H22.3894L36.7338 5.69226Z" fill="white"/>
<path d="M62.0337 5.69226H79.2764L68.1001 60.7797H50.8533L62.0337 5.69226Z" fill="white"/>
<path d="M11.1804 5.69226H28.4231L17.2468 60.7797H0L11.1804 5.69226Z" fill="white"/>
<path d="M288.279 19.9862L263.085 58.7967H249.187L239.997 19.9862H254.881L258.883 45.4711L273.395 20.0073L288.279 19.9862Z" fill="white"/>
</g>
<defs>
<clipPath id="clip0">
<rect width="288" height="76" fill="white"/>
</clipPath>
</defs>
</svg>
